# Blender v2.93.5 OBJ File: 'walls.blend'
# www.blender.org
mtllib walls.mtl
o Cube_Cube.001
v -1.000000 0.005000 0.995000
v -0.995000 0.000000 0.995000
v -0.995000 0.005000 1.000000
v -1.000000 0.005000 -0.995000
v -0.995000 0.005000 -1.000000
v -0.995000 0.000000 -0.995000
v -1.000000 1.995000 -0.995000
v -0.995000 2.000000 -0.995000
v -0.995000 1.995000 -1.000000
v 0.995000 0.000000 0.995000
v 1.000000 0.005000 0.995000
v 0.995000 0.005000 1.000000
v 0.995000 2.000000 0.995000
v 0.995000 1.995000 1.000000
v 1.000000 1.995000 0.995000
v 0.995000 0.000000 -0.995000
v 0.995000 0.005000 -1.000000
v 1.000000 0.005000 -0.995000
v 0.995000 2.000000 -0.995000
v 1.000000 1.995000 -0.995000
v 0.995000 1.995000 -1.000000
v -1.000000 0.044963 0.995000
v -0.995000 0.044963 1.000000
v -0.995000 0.049926 0.995000
v -0.995000 0.035375 -0.959662
v -0.995000 0.040338 -0.964625
v -1.000000 0.030316 -0.969684
v -1.000000 1.995000 -0.955037
v -0.995000 1.995000 -0.950074
v -0.995000 2.000000 -0.955037
v 0.959662 0.035375 0.995000
v 0.969684 0.030316 1.000000
v 0.964625 0.040338 0.995000
v 0.955037 2.000000 0.995000
v 0.950074 1.995000 0.995000
v 0.955037 1.995000 1.000000
v 0.966116 0.028900 -0.966116
v 0.971100 0.033884 -0.966116
v 0.966116 0.033884 -0.971100
v 0.959662 1.995000 -0.964625
v 0.964625 1.995000 -0.959662
v 0.969684 2.000000 -0.969684
vt 0.625000 0.500000
vt 0.625000 0.250629
vt 0.625000 0.250633
vt 0.625000 0.500000
vt 0.375000 0.750000
vt 0.624371 0.750000
vt 0.624367 0.750000
vt 0.375000 0.750000
vt 0.125629 0.750000
vt 0.125633 0.750000
vt 0.375634 0.500634
vt 0.375636 0.749365
vt 0.624364 0.749364
vt 0.624365 0.500636
vt 0.375636 0.250634
vt 0.375634 0.499365
vt 0.624366 0.499364
vt 0.624364 0.250636
vt 0.125625 0.500625
vt 0.374375 0.500625
vt 0.374375 0.749375
vt 0.125625 0.749375
vt 0.375625 0.250625
vt 0.624375 0.250625
vt 0.624375 0.499375
vt 0.375625 0.499375
vt 0.375625 0.500625
vt 0.624375 0.500625
vt 0.624375 0.749375
vt 0.375625 0.749375
vt 0.125635 0.500636
vt 0.125636 0.749364
vt 0.374364 0.749366
vt 0.374366 0.500635
vt 0.625000 0.749372
vt 0.625000 0.749367
vt 0.624371 0.250000
vt 0.375000 0.250000
vt 0.375000 0.250000
vt 0.624367 0.250000
vt 0.125000 0.749372
vt 0.375625 0.250000
vt 0.375000 0.250000
vt 0.374375 0.500000
vt 0.375000 0.500625
vt 0.125000 0.749367
vt 0.125000 0.500636
vt 0.125000 0.500007
vt 0.125000 0.500000
vt 0.375000 0.500638
vt 0.374362 0.500000
vt 0.125000 0.500000
vt 0.125625 0.500000
vt 0.125632 0.500000
vn 0.0000 1.0000 0.0000
vn 0.0000 0.0000 1.0000
vn -1.0000 -0.0054 -0.0054
vn 0.0054 -0.0054 1.0000
vn 0.0000 -1.0000 0.0000
vn 0.0000 0.0000 -1.0000
vn 1.0000 0.0000 0.0000
vn 0.0054 1.0000 -0.0054
vn -1.0000 0.0000 0.0000
vn -0.5774 -0.5774 0.5773
vn -0.5774 -0.5774 -0.5773
vn -0.5774 0.5774 -0.5773
vn 0.5774 -0.5774 0.5773
vn 0.5774 0.5774 0.5773
vn 0.5774 -0.5774 -0.5773
vn 0.5774 0.5774 -0.5773
vn -0.5759 0.5802 0.5759
vn -0.9054 0.3002 0.3002
vn -0.5759 0.5759 0.5802
vn -0.3002 0.3002 0.9054
vn -0.5802 0.5759 0.5759
vn -0.5773 0.5773 0.5774
vn -0.3002 0.9054 0.3002
vn -0.7071 -0.7071 0.0000
vn -0.7071 0.0000 -0.7071
vn 0.0000 -0.7071 -0.7071
vn 0.0000 0.7071 -0.7071
vn 0.7071 0.0000 -0.7071
vn 0.7071 -0.7071 0.0000
vn 0.7071 0.7071 0.0000
vn 0.7071 0.0000 0.7071
vn 0.0000 -0.7071 0.7071
vn -0.7052 0.7090 -0.0053
vn -0.7052 -0.0053 0.7090
vn 0.0047 0.7071 0.7071
vn 0.0053 0.7052 0.7090
vn -0.7071 -0.0047 0.7071
vn -0.7071 0.7071 -0.0047
vn -0.7090 0.7052 -0.0053
vn -0.7090 -0.0053 0.7052
vn 0.0053 0.7090 0.7052
vn -0.7071 0.0000 0.7071
vn -0.7071 0.7071 0.0000
vn 0.0000 0.7071 0.7071
usemtl None
s off
f 19/1/1 8/2/1 30/3/1 42/4/1
f 12/5/2 14/6/2 36/7/2 32/8/2
f 3/9/2 12/5/2 32/8/2 23/10/2
f 38/11/3 33/12/3 35/13/3 41/14/3
f 26/15/4 39/16/4 40/17/4 29/18/4
f 6/19/5 16/20/5 10/21/5 2/22/5
f 5/23/6 9/24/6 21/25/6 17/26/6
f 18/27/7 20/28/7 15/29/7 11/30/7
f 25/31/8 24/32/8 31/33/8 37/34/8
f 13/35/1 19/1/1 42/4/1 34/36/1
f 7/37/9 4/38/9 27/39/9 28/40/9
f 1/41/10 2/22/10 3/9/10
f 4/38/11 5/42/11 6/43/11
f 7/37/12 8/2/12 9/24/12
f 10/21/13 11/30/13 12/5/13
f 13/35/14 14/6/14 15/29/14
f 16/20/15 17/44/15 18/45/15
f 19/1/16 20/28/16 21/25/16
f 22/46/17 23/10/17 24/32/17
f 25/47/18 26/48/18 27/49/18
f 28/40/19 29/18/19 30/3/19
f 31/33/20 32/8/20 33/12/20
f 34/36/21 35/13/21 36/7/21
f 37/34/22 38/50/22 39/51/22
f 40/17/23 41/14/23 42/4/23
f 6/19/24 2/22/24 1/41/24 4/52/24
f 9/24/25 5/23/25 4/38/25 7/37/25
f 16/20/26 6/19/26 5/53/26 17/44/26
f 8/2/27 19/1/27 21/25/27 9/24/27
f 20/28/28 18/27/28 17/26/28 21/25/28
f 10/21/29 16/20/29 18/27/29 11/30/29
f 19/1/30 13/35/30 15/29/30 20/28/30
f 14/6/31 12/5/31 11/30/31 15/29/31
f 2/22/32 10/21/32 12/5/32 3/9/32
f 27/49/33 22/46/33 24/32/33 25/31/33
f 28/40/34 27/39/34 26/15/34 29/18/34
f 39/51/35 26/54/35 25/31/35 37/34/35
f 29/18/36 40/17/36 42/4/36 30/3/36
f 40/17/37 39/16/37 38/11/37 41/14/37
f 33/12/38 38/11/38 37/34/38 31/33/38
f 41/14/39 35/13/39 34/36/39 42/4/39
f 35/13/40 33/12/40 32/8/40 36/7/40
f 23/10/41 32/8/41 31/33/41 24/32/41
f 3/9/42 23/10/42 22/46/42 1/41/42
f 7/37/43 28/40/43 30/3/43 8/2/43
f 13/35/44 34/36/44 36/7/44 14/6/44
f 4/52/9 1/41/9 22/46/9 27/49/9
